<?xml version="1.0" encoding="utf-8"?>
<!-- Generator: Adobe Illustrator 21.1.0, SVG Export Plug-In . SVG Version: 6.00 Build 0)  -->
<svg version="1.1" id="Capa_1" xmlns="http://www.w3.org/2000/svg" xmlns:xlink="http://www.w3.org/1999/xlink" x="0px" y="0px"
	 viewBox="0 0 50.7 50.7" style="enable-background:new 0 0 50.7 50.7;" xml:space="preserve">
<style type="text/css">
	.st0{fill:#030104;}
</style>
<g>
	<path class="st0" d="M47.1,38.2C47.1,38.2,47.1,38.2,47.1,38.2C47.1,38.2,47.1,38.2,47.1,38.2z"/>
	<path class="st0" d="M40,4.7C40.1,4.7,40.1,4.8,40,4.7C40.1,4.8,40.1,4.7,40,4.7z"/>
	<path class="st0" d="M28.7,0.2c0.5,0.1,1,0.1,1.5,0.2C29.7,0.4,29.2,0.3,28.7,0.2z"/>
	<path class="st0" d="M49,34.5c0.1-0.2,0.1-0.4,0.2-0.5C49.1,34.1,49,34.3,49,34.5z"/>
	<path class="st0" d="M25.3,50.7C25.3,50.7,25.3,50.7,25.3,50.7c-0.1,0-0.2,0-0.3,0C25.1,50.7,25.2,50.7,25.3,50.7z"/>
	<path class="st0" d="M48.1,36.4c0-0.1,0.1-0.2,0.1-0.3C48.2,36.2,48.1,36.3,48.1,36.4z"/>
	<path class="st0" d="M25.3,0c0.8,0,1.6,0,2.4,0.1C27,0,26.2,0,25.3,0z"/>
	<path class="st0" d="M33.7,1.4c0.3,0.1,0.6,0.2,0.9,0.3C34.3,1.7,34,1.5,33.7,1.4z"/>
	<path class="st0" d="M25.3,0c-0.1,0-0.2,0-0.3,0C25.1,0,25.2,0,25.3,0C25.3,0,25.3,0,25.3,0z"/>
	<path class="st0" d="M31.3,0.7c0.4,0.1,0.8,0.2,1.2,0.3C32.1,0.9,31.7,0.8,31.3,0.7z"/>
	<path class="st0" d="M27.8,50.6c-0.8,0.1-1.6,0.1-2.4,0.1C26.2,50.7,27,50.6,27.8,50.6z"/>
	<path class="st0" d="M38,3.4c0.1,0.1,0.3,0.2,0.4,0.3C38.3,3.6,38.2,3.5,38,3.4z"/>
	<path class="st0" d="M35.9,2.3c0.2,0.1,0.5,0.2,0.7,0.3C36.4,2.6,36.2,2.4,35.9,2.3z"/>
	<path class="st0" d="M0,25.3C0,25.3,0,25.3,0,25.3c0-0.1,0-0.2,0-0.3C0,25.2,0,25.2,0,25.3z"/>
	<path class="st0" d="M49.7,32.3c0.1-0.3,0.1-0.5,0.2-0.8C49.8,31.8,49.7,32.1,49.7,32.3z"/>
	<path class="st0" d="M34.5,48.9c-0.2,0.1-0.4,0.1-0.6,0.2C34.1,49.1,34.3,49,34.5,48.9z"/>
	<path class="st0" d="M32.4,49.7c-0.3,0.1-0.6,0.2-0.9,0.2C31.8,49.8,32.1,49.8,32.4,49.7z"/>
	<path class="st0" d="M36.5,48.1c-0.1,0-0.2,0.1-0.3,0.1C36.3,48.2,36.4,48.1,36.5,48.1z"/>
	<path class="st0" d="M38.3,47.1C38.3,47.1,38.3,47.1,38.3,47.1C38.3,47.1,38.3,47.1,38.3,47.1z"/>
	<path class="st0" d="M50.2,30.1c0.1-0.4,0.1-0.7,0.2-1.1C50.3,29.4,50.3,29.7,50.2,30.1z"/>
	<path class="st0" d="M30.1,50.2c-0.4,0.1-0.9,0.1-1.3,0.2C29.3,50.4,29.7,50.3,30.1,50.2z"/>
	<path class="st0" d="M50.6,27.8c0.1-0.5,0.1-1.1,0.1-1.7C50.6,26.7,50.6,27.2,50.6,27.8z"/>
	<polygon class="st0" points="25.3,50.7 25.3,50.7 25.3,50.7 	"/>
	<path class="st0" d="M28.8,50.4c-0.3,0-0.7,0.1-1,0.1C28.1,50.5,28.5,50.5,28.8,50.4z"/>
	<path class="st0" d="M27.8,0.1c0.3,0,0.6,0.1,0.9,0.1C28.4,0.2,28.1,0.2,27.8,0.1z"/>
	<path class="st0" d="M33.9,49.2c-0.5,0.2-1,0.4-1.6,0.5C32.9,49.5,33.4,49.3,33.9,49.2z"/>
	<path class="st0" d="M31.5,49.9c-0.5,0.1-0.9,0.2-1.4,0.3C30.6,50.1,31.1,50,31.5,49.9z"/>
	<polygon class="st0" points="25.3,0 25.3,0 25.3,0 	"/>
	<path class="st0" d="M36.2,48.2c-0.6,0.3-1.1,0.5-1.7,0.7C35.1,48.7,35.7,48.5,36.2,48.2z"/>
	<path class="st0" d="M44.6,41.8C44.6,41.8,44.6,41.8,44.6,41.8c1-1.1,1.8-2.3,2.5-3.5C46.4,39.5,45.5,40.7,44.6,41.8z"/>
	<path class="st0" d="M50.3,21.2C50.3,21.2,50.3,21.2,50.3,21.2c-1.1-6.7-4.9-12.5-10.2-16.4C45.4,8.6,49.2,14.5,50.3,21.2z"/>
	<path class="st0" d="M50.7,25.3c0,0.3,0,0.5,0,0.8C50.6,25.8,50.7,25.6,50.7,25.3c0-0.1,0-0.2,0-0.4c0,0,0,0,0,0
		C50.7,25.1,50.7,25.2,50.7,25.3z"/>
	<path class="st0" d="M25,0C11.3,0.2,0.2,11.3,0,25.1C0.2,11.3,11.3,0.2,25,0z"/>
	<path class="st0" d="M50.4,29c0.1-0.4,0.1-0.8,0.2-1.3C50.5,28.2,50.4,28.6,50.4,29z"/>
	<path class="st0" d="M49.9,31.5c0.1-0.5,0.2-1,0.3-1.4C50.1,30.6,50,31.1,49.9,31.5z"/>
	<path class="st0" d="M38.3,47.1c1.3-0.8,2.5-1.6,3.6-2.6c0,0,0,0,0,0C40.8,45.4,39.6,46.3,38.3,47.1z"/>
	<path class="st0" d="M0,25.3C0,25.3,0,25.3,0,25.3c0,13.9,11.2,25.2,25,25.3C11.2,50.5,0,39.2,0,25.3z"/>
	<path class="st0" d="M38.3,47.1c-0.6,0.4-1.2,0.7-1.8,1C37.1,47.8,37.7,47.4,38.3,47.1z"/>
	<path class="st0" d="M34.6,1.8c0.4,0.2,0.9,0.4,1.3,0.6C35.5,2.1,35,1.9,34.6,1.8z"/>
	<path class="st0" d="M36.6,2.7c0.5,0.2,1,0.5,1.4,0.8C37.6,3.2,37.1,2.9,36.6,2.7z"/>
	<path class="st0" d="M32.4,1c0.4,0.1,0.8,0.3,1.2,0.4C33.3,1.3,32.9,1.1,32.4,1z"/>
	<path class="st0" d="M38.5,3.7c0.5,0.3,1,0.7,1.5,1C39.5,4.4,39,4,38.5,3.7z"/>
	<path class="st0" d="M30.2,0.5c0.4,0.1,0.7,0.2,1.1,0.3C30.9,0.6,30.5,0.5,30.2,0.5z"/>
	<path class="st0" d="M48.2,36.1c0.3-0.6,0.5-1.1,0.7-1.7C48.7,35,48.5,35.6,48.2,36.1z"/>
	<path class="st0" d="M49.2,33.9c0.2-0.5,0.4-1,0.5-1.6C49.5,32.9,49.3,33.4,49.2,33.9z"/>
	<path class="st0" d="M47.1,38.2c0.3-0.6,0.7-1.2,1-1.8C47.8,37,47.5,37.6,47.1,38.2z"/>
	<path class="st0" d="M44.6,41.8C44.6,41.8,44.6,41.8,44.6,41.8c0.9-1.1,1.8-2.3,2.5-3.6c0,0,0,0,0,0c0.3-0.6,0.7-1.2,1-1.8
		c0-0.1,0.1-0.2,0.1-0.3c0.3-0.6,0.5-1.1,0.7-1.7c0.1-0.2,0.1-0.4,0.2-0.5c0.2-0.5,0.4-1,0.5-1.6c0.1-0.3,0.1-0.5,0.2-0.8
		c0.1-0.5,0.2-1,0.3-1.4c0.1-0.4,0.1-0.7,0.2-1.1c0.1-0.4,0.1-0.8,0.2-1.3c0.1-0.5,0.1-1.1,0.1-1.7c0-0.3,0-0.5,0-0.8
		c0-0.1,0-0.2,0-0.4c0,0,0,0,0,0c0-1.3-0.1-2.6-0.4-3.8c0,0,0,0,0,0c-1.1-6.7-4.9-12.5-10.2-16.4c0,0-0.1,0-0.1-0.1
		c-0.5-0.4-1-0.7-1.5-1c-0.1-0.1-0.3-0.2-0.4-0.3c-0.5-0.3-0.9-0.5-1.4-0.8c-0.2-0.1-0.5-0.2-0.7-0.3c-0.4-0.2-0.9-0.4-1.3-0.6
		c-0.3-0.1-0.6-0.2-0.9-0.3c-0.4-0.1-0.8-0.3-1.2-0.4c-0.4-0.1-0.8-0.2-1.2-0.3c-0.4-0.1-0.7-0.2-1.1-0.3c-0.5-0.1-1-0.2-1.5-0.2
		c-0.3,0-0.6-0.1-0.9-0.1C27,0,26.2,0,25.3,0c0,0,0,0,0,0c-0.1,0-0.2,0-0.3,0C11.3,0.2,0.2,11.3,0,25.1c0,0.1,0,0.2,0,0.3
		c0,13.9,11.2,25.2,25,25.3c0.1,0,0.2,0,0.3,0c0,0,0,0,0,0c0.8,0,1.6,0,2.4-0.1c0.4,0,0.7-0.1,1-0.1c0.4-0.1,0.9-0.1,1.3-0.2
		c0.5-0.1,0.9-0.2,1.4-0.3c0.3-0.1,0.6-0.1,0.9-0.2c0.5-0.2,1-0.3,1.6-0.5c0.2-0.1,0.4-0.1,0.6-0.2c0.6-0.2,1.1-0.5,1.7-0.7
		c0.1,0,0.2-0.1,0.3-0.1c0.6-0.3,1.2-0.6,1.8-1c0,0,0,0,0,0c1.3-0.8,2.5-1.6,3.6-2.6c0,0,0,0,0,0C42.9,43.6,43.8,42.8,44.6,41.8z
		 M25.3,47.2c-12,0-21.8-9.8-21.8-21.8c0-12,9.8-21.8,21.8-21.8c12,0,21.8,9.8,21.8,21.8C47.1,37.4,37.4,47.2,25.3,47.2z"/>
	<path class="st0" d="M12.1,10.6C6.9,13.7,5.8,20.7,5.8,21c-0.1,0.5,0.3,0.9,0.7,1c0,0,0.1,0,0.1,0c0.4,0,0.8-0.3,0.9-0.8
		c0-0.1,1-6.5,5.5-9.2c0.4-0.3,0.6-0.8,0.3-1.2C13,10.4,12.5,10.3,12.1,10.6z"/>
</g>
</svg>
