<svg xmlns="http://www.w3.org/2000/svg" viewBox="0 0 349.49 268.84"><title>Recurso 4</title><g id="Capa_2" data-name="Capa 2"><g id="uEA05-invader-cinco"><path d="M242,0V26.88H215.07V53.77H242V26.88h26.88V0ZM80.65,26.88h26.88V0H80.65Zm26.88,26.88h26.88V26.88H107.54Zm80.65,0V80.65H161.3V53.77H134.42V80.65H53.77v26.88H26.88v26.88H0V161.3H26.88v26.88H53.77v26.88h53.77V242h26.88V215.07H161.3V242h26.88V215.07h26.88V242H242V215.07h53.77V188.19h26.88V161.3h26.88V134.42H322.61V107.54H295.72V80.65H215.07V53.77Zm26.88,80.65h53.77V161.3H215.07Zm-134.42,0h53.77V161.3H80.65ZM242,268.84h26.88V242H242Zm-161.3,0h26.88V242H80.65Z"/></g></g></svg>