<svg xmlns="http://www.w3.org/2000/svg" viewBox="0 0 349.49 241.96"><title>Recurso 5</title><g id="Capa_2" data-name="Capa 2"><g id="uEA04-invader-cuatro"><path d="M215.07,26.88H242V0H215.07Zm-107.54,0h26.88V0H107.54Zm80.65,0V53.77H161.3V26.88H134.42V53.77H80.65V80.65H53.77v26.88H26.88v26.88H0v53.77H26.88V134.42H53.77V161.3H80.65v26.88h26.88v26.88h26.88V188.19h80.65v26.88H242V188.19h26.88V161.3h26.88V134.42h26.88V107.54H295.72V80.65H268.84V53.77H215.07V26.88Zm26.88,80.65H242v26.88H215.07Zm-107.54,0h26.88v26.88H107.54Zm215.07,26.88v53.77h26.88V134.42Zm-53.77,80.65H242V242h53.77V215.07Zm-188.19,0H53.77V242h53.77V215.07Z"/></g></g></svg>