<svg xmlns="http://www.w3.org/2000/svg" viewBox="0 0 295.72 241.96"><title>Recurso 7</title><g id="Capa_2" data-name="Capa 2"><g id="uEA02-invader-dos"><path d="M215.07,26.88H242V0H215.07Zm-161.3,0H80.65V0H53.77Zm134.42,0V80.65H107.54V26.88H80.65V80.65H53.77v26.88H26.88v26.88H0V242H26.88V134.42H53.77v80.65H80.65V188.19H215.07v26.88H242V134.42h26.88V107.54H242V80.65H215.07V26.88Zm0,107.54V107.54h26.88V161.3H188.19Zm-107.54,0V107.54h26.88V161.3H80.65Zm188.19,0V242h26.88V134.42Zm-80.65,80.65H161.3V242h53.77V215.07Zm-80.65,0H80.65V242h53.77V215.07Z"/></g></g></svg>