<svg xmlns="http://www.w3.org/2000/svg" viewBox="0 0 349.49 241.96"><title>Recurso 3</title><g id="Capa_2" data-name="Capa 2"><g id="uEA06-invader-seis"><path d="M215.07,0H107.54V26.88H80.65V53.77H53.77V80.65H26.88v26.88H0v26.88H26.88V161.3H53.77v26.88H80.65V161.3h53.77v26.88H161.3V161.3h26.88v26.88h26.88V161.3h53.77v26.88h26.88V161.3h26.88V134.42h26.88V107.54H322.61V80.65H295.72V53.77H268.84V26.88H242V0Zm0,80.65H242v26.88H215.07Zm-107.54,0h26.88v26.88H107.54ZM295.72,215.07h26.88V188.19H295.72Zm-80.65,0H242V188.19H215.07ZM107.54,188.19v26.88H80.65V242h26.88V215.07h26.88V188.19ZM26.88,215.07H53.77V188.19H26.88ZM322.61,242h26.88V215.07H322.61ZM242,242h26.88V215.07H242ZM0,242H26.88V215.07H0Z"/></g></g></svg>