<svg xmlns="http://www.w3.org/2000/svg" viewBox="0 0 349.49 241.96"><title>Recurso 8</title><g id="Capa_2" data-name="Capa 2"><g id="uEA01-invaderUno"><path d="M215.07,26.88H242V0H215.07Zm-107.54,0h26.88V0H107.54Zm80.65,0V53.77H161.3V26.88H134.42V53.77H26.88V80.65H0v53.77H26.88V161.3h80.65v26.88h26.88V161.3H161.3v26.88h26.88V161.3h26.88v26.88H242V161.3h80.65V134.42h26.88V80.65H322.61V53.77H215.07V26.88Zm26.88,53.77h53.77v26.88H215.07Zm-134.42,0h53.77v26.88H80.65ZM242,215.07h26.88V188.19H242Zm-53.77-26.88v26.88H161.3V242h26.88V215.07h26.88V188.19Zm-53.77,26.88H161.3V188.19H134.42Zm-53.77,0h26.88V188.19H80.65Zm215.07,0H268.84V242h53.77V215.07Zm-242,0H26.88V242H80.65V215.07Z"/></g></g></svg>