<svg xmlns="http://www.w3.org/2000/svg" viewBox="0 0 241.96 241.96"><title>Recurso 6</title><g id="Capa_2" data-name="Capa 2"><g id="uEA03-invade-tres"><path d="M134.42,0H80.65V26.88H53.77V53.77H26.88V80.65H0v53.77H26.88V161.3H0v53.77H26.88V242H80.65V215.07H53.77V188.19H26.88V161.3H53.77V134.42H80.65V161.3H161.3V134.42h26.88V161.3h26.88V134.42H242V80.65H215.07V53.77H188.19V26.88H161.3V0ZM161.3,80.65h26.88v26.88H161.3Zm-107.54,0H80.65v26.88H53.77Zm161.3,80.65v26.88H188.19v26.88H161.3V242h53.77V215.07H242V161.3Z"/></g></g></svg>